<svg xmlns="http://www.w3.org/2000/svg" viewBox="0 0 202 80" fill="none" role="img" aria-label="Qwibo">
  <title>Qwibo</title>
  <desc>Logo Qwibo per sfondi chiari: bobina che si srotola in righe di testo, wordmark in tracciati vettoriali</desc>
  <g transform="translate(8,8)">
    <circle cx="22" cy="25" r="13" stroke="#0284c7" stroke-width="5"/>
    <circle cx="22" cy="25" r="3" fill="#0284c7"/>
    <path d="M22 38H57" stroke="#0284c7" stroke-width="5" stroke-linecap="round"/>
    <path d="M22 48H57" stroke="#0f172a" stroke-width="5" stroke-linecap="round"/>
    <path d="M22 58H44" stroke="#0f172a" stroke-width="5" stroke-linecap="round"/>
  </g>
  <path fill="#0f172a" fill-rule="nonzero" d="M103.16796875 63.19921875H96.99609375V51.24609375H96.91796875Q94.828125 54.48828125 90.765625 54.48828125Q86.99609375 54.48828125 84.701171875 51.861328125Q82.40625 49.234375 82.40625 44.48828125Q82.40625 39.48828125 84.92578125 36.5Q87.4453125 33.51171875 91.48828125 33.51171875Q95.16015625 33.51171875 96.91796875 36.32421875H96.99609375V34.0H103.16796875ZM97.11328125 44.44921875V42.84765625Q97.11328125 40.89453125 95.98046875 39.56640625Q94.84765625 38.23828125 93.0703125 38.23828125Q91.01953125 38.23828125 89.84765625 39.849609375Q88.67578125 41.4609375 88.67578125 44.3125Q88.67578125 46.87109375 89.818359375 48.31640625Q90.9609375 49.76171875 92.796875 49.76171875Q94.75 49.76171875 95.931640625 48.296875Q97.11328125 46.83203125 97.11328125 44.44921875Z M136.328125 34.0 130.56640625 54.0H124.08203125L121.1328125 42.28125Q120.83984375 41.109375 120.80078125 39.72265625H120.68359375Q120.546875 41.24609375 120.29296875 42.203125L117.12890625 54.0H110.72265625L105.078125 34.0H111.3671875L114.12109375 47.046875Q114.31640625 47.96484375 114.4140625 49.2734375H114.53125Q114.62890625 47.90625 114.8828125 46.96875L118.3203125 34.0H124.19921875L127.28515625 47.046875Q127.40234375 47.53515625 127.55859375 49.3125H127.6953125Q127.79296875 48.1796875 128.0078125 47.046875L130.60546875 34.0Z M141.3828125 30.8359375Q139.8203125 30.8359375 138.82421875 29.908203125Q137.828125 28.98046875 137.828125 27.6328125Q137.828125 26.24609375 138.82421875 25.3671875Q139.8203125 24.48828125 141.3828125 24.48828125Q142.96484375 24.48828125 143.951171875 25.3671875Q144.9375 26.24609375 144.9375 27.6328125Q144.9375 29.0390625 143.951171875 29.9375Q142.96484375 30.8359375 141.3828125 30.8359375ZM144.4296875 54.0H138.2578125V34.0H144.4296875Z M154.875 51.67578125H154.796875V54.0H148.625V24.390625H154.796875V37.0078125H154.875Q157.16015625 33.51171875 161.37890625 33.51171875Q165.24609375 33.51171875 167.3359375 36.16796875Q169.42578125 38.82421875 169.42578125 43.43359375Q169.42578125 48.43359375 166.984375 51.4609375Q164.54296875 54.48828125 160.4609375 54.48828125Q156.76953125 54.48828125 154.875 51.67578125ZM154.69921875 43.23828125V45.2890625Q154.69921875 47.22265625 155.8125 48.4921875Q156.92578125 49.76171875 158.6640625 49.76171875Q160.7734375 49.76171875 161.935546875 48.130859375Q163.09765625 46.5 163.09765625 43.51171875Q163.09765625 41.03125 162.033203125 39.634765625Q160.96875 38.23828125 158.99609375 38.23828125Q157.140625 38.23828125 155.919921875 39.625Q154.69921875 41.01171875 154.69921875 43.23828125Z M181.9609375 54.48828125Q176.9609375 54.48828125 174.099609375 51.685546875Q171.23828125 48.8828125 171.23828125 44.078125Q171.23828125 39.1171875 174.20703125 36.314453125Q177.17578125 33.51171875 182.234375 33.51171875Q187.21484375 33.51171875 190.046875 36.314453125Q192.87890625 39.1171875 192.87890625 43.7265625Q192.87890625 48.70703125 189.958984375 51.59765625Q187.0390625 54.48828125 181.9609375 54.48828125ZM182.1171875 38.23828125Q179.9296875 38.23828125 178.71875 39.7421875Q177.5078125 41.24609375 177.5078125 44.0Q177.5078125 49.76171875 182.15625 49.76171875Q186.58984375 49.76171875 186.58984375 43.84375Q186.58984375 38.23828125 182.1171875 38.23828125Z"/>
</svg>
