<svg xmlns="http://www.w3.org/2000/svg" viewBox="0 0 200 80" fill="none" role="img" aria-label="Qwibo">
  <title>Qwibo</title>
  <desc>Logo Qwibo per sfondi scuri: bobina che si srotola in righe di testo, wordmark in tracciati vettoriali</desc>
  <g transform="translate(8,8)">
    <circle cx="22" cy="25" r="13" stroke="#38bdf8" stroke-width="5"/>
    <circle cx="22" cy="25" r="3" fill="#38bdf8"/>
    <path d="M22 38H57" stroke="#38bdf8" stroke-width="5" stroke-linecap="round"/>
    <path d="M22 48H57" stroke="#f0f4ff" stroke-width="5" stroke-linecap="round"/>
    <path d="M22 58H44" stroke="#f0f4ff" stroke-width="5" stroke-linecap="round"/>
  </g>
  <path fill="#f0f4ff" fill-rule="nonzero" d="M22.16796875 63.19921875H15.99609375V51.24609375H15.91796875Q13.828125 54.48828125 9.765625 54.48828125Q5.99609375 54.48828125 3.701171875 51.861328125Q1.40625 49.234375 1.40625 44.48828125Q1.40625 39.48828125 3.92578125 36.5Q6.4453125 33.51171875 10.48828125 33.51171875Q14.16015625 33.51171875 15.91796875 36.32421875H15.99609375V34.0H22.16796875ZM16.11328125 44.44921875V42.84765625Q16.11328125 40.89453125 14.98046875 39.56640625Q13.84765625 38.23828125 12.0703125 38.23828125Q10.01953125 38.23828125 8.84765625 39.849609375Q7.67578125 41.4609375 7.67578125 44.3125Q7.67578125 46.87109375 8.818359375 48.31640625Q9.9609375 49.76171875 11.796875 49.76171875Q13.75 49.76171875 14.931640625 48.296875Q16.11328125 46.83203125 16.11328125 44.44921875Z M55.328125 34.0 49.56640625 54.0H43.08203125L40.1328125 42.28125Q39.83984375 41.109375 39.80078125 39.72265625H39.68359375Q39.546875 41.24609375 39.29296875 42.203125L36.12890625 54.0H29.72265625L24.078125 34.0H30.3671875L33.12109375 47.046875Q33.31640625 47.96484375 33.4140625 49.2734375H33.53125Q33.62890625 47.90625 33.8828125 46.96875L37.3203125 34.0H43.19921875L46.28515625 47.046875Q46.40234375 47.53515625 46.55859375 49.3125H46.6953125Q46.79296875 48.1796875 47.0078125 47.046875L49.60546875 34.0Z M60.3828125 30.8359375Q58.8203125 30.8359375 57.82421875 29.908203125Q56.828125 28.98046875 56.828125 27.6328125Q56.828125 26.24609375 57.82421875 25.3671875Q58.8203125 24.48828125 60.3828125 24.48828125Q61.96484375 24.48828125 62.951171875 25.3671875Q63.9375 26.24609375 63.9375 27.6328125Q63.9375 29.0390625 62.951171875 29.9375Q61.96484375 30.8359375 60.3828125 30.8359375ZM63.4296875 54.0H57.2578125V34.0H63.4296875Z M73.875 51.67578125H73.796875V54.0H67.625V24.390625H73.796875V37.0078125H73.875Q76.16015625 33.51171875 80.37890625 33.51171875Q84.24609375 33.51171875 86.3359375 36.16796875Q88.42578125 38.82421875 88.42578125 43.43359375Q88.42578125 48.43359375 85.984375 51.4609375Q83.54296875 54.48828125 79.4609375 54.48828125Q75.76953125 54.48828125 73.875 51.67578125ZM73.69921875 43.23828125V45.2890625Q73.69921875 47.22265625 74.8125 48.4921875Q75.92578125 49.76171875 77.6640625 49.76171875Q79.7734375 49.76171875 80.935546875 48.130859375Q82.09765625 46.5 82.09765625 43.51171875Q82.09765625 41.03125 81.033203125 39.634765625Q79.96875 38.23828125 77.99609375 38.23828125Q76.140625 38.23828125 74.919921875 39.625Q73.69921875 41.01171875 73.69921875 43.23828125Z M100.9609375 54.48828125Q95.9609375 54.48828125 93.099609375 51.685546875Q90.23828125 48.8828125 90.23828125 44.078125Q90.23828125 39.1171875 93.20703125 36.314453125Q96.17578125 33.51171875 101.234375 33.51171875Q106.21484375 33.51171875 109.046875 36.314453125Q111.87890625 39.1171875 111.87890625 43.7265625Q111.87890625 48.70703125 108.958984375 51.59765625Q106.0390625 54.48828125 100.9609375 54.48828125ZM101.1171875 38.23828125Q98.9296875 38.23828125 97.71875 39.7421875Q96.5078125 41.24609375 96.5078125 44.0Q96.5078125 49.76171875 101.15625 49.76171875Q105.58984375 49.76171875 105.58984375 43.84375Q105.58984375 38.23828125 101.1171875 38.23828125Z"/>
</svg>
